HIERARCHY
ROOT hips
{
  OFFSET 0 9.313263304106702 1.2146308026317778
  CHANNELS 6 Xposition Yposition Zposition Yrotation Xrotation Zrotation
  JOINT spine
  {
    OFFSET -6.402521e-31 0.5173342420023708 0
    CHANNELS 3 Yrotation Xrotation Zrotation
    JOINT chest
    {
      OFFSET 0 1.130544299341115 0
      CHANNELS 3 Yrotation Xrotation Zrotation
      JOINT upperChest
      {
        OFFSET 0 1.0863555061129995 0
        CHANNELS 3 Yrotation Xrotation Zrotation
        JOINT neck
        {
          OFFSET 0 1.3773706506454462 0
          CHANNELS 3 Yrotation Xrotation Zrotation
          JOINT head
          {
            OFFSET 0 0.7374408940073979 0
            CHANNELS 3 Yrotation Xrotation Zrotation
            JOINT leftEye
            {
              OFFSET 0.25066580148932727 0.6408406698778757 0.15963719178883284
              CHANNELS 3 Yrotation Xrotation Zrotation
              End Site
              {
                OFFSET 0.25066580148932727 0.6408406698778757 0.15963719178883284
              }
            }
            JOINT rightEye
            {
              OFFSET -0.25066576739704244 0.6408406384191823 0.15963727561643756
              CHANNELS 3 Yrotation Xrotation Zrotation
              End Site
              {
                OFFSET -0.25066576739704244 0.6408406384191823 0.15963727561643756
              }
            }
          }
        }
        JOINT leftShoulder
        {
          OFFSET 0.3761817444281191 1.0539491987447769 0
          CHANNELS 3 Yrotation Xrotation Zrotation
          JOINT leftUpperArm
          {
            OFFSET 0.8702844380000002 0 0
            CHANNELS 3 Yrotation Xrotation Zrotation
            JOINT leftLowerArm
            {
              OFFSET 2.198527310000323 0 0
              CHANNELS 3 Yrotation Xrotation Zrotation
              JOINT leftHand
              {
                OFFSET 2.146852313968281 0 0
                CHANNELS 3 Yrotation Xrotation Zrotation
                JOINT leftIndexProximal
                {
                  OFFSET 0.6585177834681599 0.07380250427007962 0.18382213159631788
                  CHANNELS 3 Yrotation Xrotation Zrotation
                  JOINT leftIndexIntermediate
                  {
                    OFFSET 0.3323021288626682 -0.009606893929485771 -0.012820872253340998
                    CHANNELS 3 Yrotation Xrotation Zrotation
                    JOINT leftIndexDistal
                    {
                      OFFSET 0.2045908926985518 -0.0071133989147997845 -0.006828784783599051
                      CHANNELS 3 Yrotation Xrotation Zrotation
                      End Site
                      {
                        OFFSET 0.2045908926985518 -0.0071133989147997845 -0.006828784783599051
                      }
                    }
                  }
                }
                JOINT leftLittleProximal
                {
                  OFFSET 0.6110054258835662 0.07380246363125398 -0.29175655876064077
                  CHANNELS 3 Yrotation Xrotation Zrotation
                  JOINT leftLittleIntermediate
                  {
                    OFFSET 0.3144281999999998 -2.5124724523095665e-9 1.8658118799974588e-7
                    CHANNELS 3 Yrotation Xrotation Zrotation
                    JOINT leftLittleDistal
                    {
                      OFFSET 0.18116185580251631 0.002815456192251098 0.0034826415518049436
                      CHANNELS 3 Yrotation Xrotation Zrotation
                      End Site
                      {
                        OFFSET 0.18116185580251631 0.002815456192251098 0.0034826415518049436
                      }
                    }
                  }
                }
                JOINT leftMiddleProximal
                {
                  OFFSET 0.6637478005691111 0.07380246480054087 0.02046981859247815
                  CHANNELS 3 Yrotation Xrotation Zrotation
                  JOINT leftMiddleIntermediate
                  {
                    OFFSET 0.3705733999999994 -2.9611069152224445e-9 9.35054791928458e-8
                    CHANNELS 3 Yrotation Xrotation Zrotation
                    JOINT leftMiddleDistal
                    {
                      OFFSET 0.22861063500000056 -1.82673876025774e-9 -1.6740782024515788e-7
                      CHANNELS 3 Yrotation Xrotation Zrotation
                      End Site
                      {
                        OFFSET 0.22861063500000056 -1.82673876025774e-9 -1.6740782024515788e-7
                      }
                    }
                  }
                }
                JOINT leftRingProximal
                {
                  OFFSET 0.6561845547265777 0.07380246406440083 -0.13588087571513918
                  CHANNELS 3 Yrotation Xrotation Zrotation
                  JOINT leftRingIntermediate
                  {
                    OFFSET 0.3437531000000005 -2.746796123886952e-9 1.4935781944558357e-7
                    CHANNELS 3 Yrotation Xrotation Zrotation
                    JOINT leftRingDistal
                    {
                      OFFSET 0.1983118991198174 -0.002467117924596085 -0.004538141969590015
                      CHANNELS 3 Yrotation Xrotation Zrotation
                      End Site
                      {
                        OFFSET 0.1983118991198174 -0.002467117924596085 -0.004538141969590015
                      }
                    }
                  }
                }
                JOINT leftThumbProximal
                {
                  OFFSET 0.09767004258864787 -0.14930060425447422 -0.07008212897521154
                  CHANNELS 3 Yrotation Xrotation Zrotation
                  JOINT leftThumbIntermediate
                  {
                    OFFSET 0.36682123028154767 -0.015768465060082004 0.28693641268151077
                    CHANNELS 3 Yrotation Xrotation Zrotation
                    JOINT leftThumbDistal
                    {
                      OFFSET 0.21091084272403915 -0.016756648201192714 0.1933767059105508
                      CHANNELS 3 Yrotation Xrotation Zrotation
                      End Site
                      {
                        OFFSET 0.21091084272403915 -0.016756648201192714 0.1933767059105508
                      }
                    }
                  }
                }
              }
            }
          }
        }
        JOINT rightShoulder
        {
          OFFSET -0.37618174442811925 1.0539491987447769 0
          CHANNELS 3 Yrotation Xrotation Zrotation
          JOINT rightUpperArm
          {
            OFFSET -0.870284438 0 0
            CHANNELS 3 Yrotation Xrotation Zrotation
            JOINT rightLowerArm
            {
              OFFSET -2.1985273100003235 0 0
              CHANNELS 3 Yrotation Xrotation Zrotation
              JOINT rightHand
              {
                OFFSET -2.1468523139682802 0 0
                CHANNELS 3 Yrotation Xrotation Zrotation
                JOINT rightIndexProximal
                {
                  OFFSET -0.6585177834681599 0.07380250427007962 0.18382213159631788
                  CHANNELS 3 Yrotation Xrotation Zrotation
                  JOINT rightIndexIntermediate
                  {
                    OFFSET -0.3323021288626682 -0.009606893929485771 -0.012820872253340998
                    CHANNELS 3 Yrotation Xrotation Zrotation
                    JOINT rightIndexDistal
                    {
                      OFFSET -0.2045908926985518 -0.0071133989147997845 -0.006828784783599051
                      CHANNELS 3 Yrotation Xrotation Zrotation
                      End Site
                      {
                        OFFSET -0.2045908926985518 -0.0071133989147997845 -0.006828784783599051
                      }
                    }
                  }
                }
                JOINT rightLittleProximal
                {
                  OFFSET -0.6110054258835662 0.07380246363125398 -0.29175655876064077
                  CHANNELS 3 Yrotation Xrotation Zrotation
                  JOINT rightLittleIntermediate
                  {
                    OFFSET -0.3144281999999998 -2.5124724523095665e-9 1.8658118799974588e-7
                    CHANNELS 3 Yrotation Xrotation Zrotation
                    JOINT rightLittleDistal
                    {
                      OFFSET -0.18116185580251631 0.002815456192251098 0.0034826415518049436
                      CHANNELS 3 Yrotation Xrotation Zrotation
                      End Site
                      {
                        OFFSET -0.18116185580251631 0.002815456192251098 0.0034826415518049436
                      }
                    }
                  }
                }
                JOINT rightMiddleProximal
                {
                  OFFSET -0.6637478005691111 0.07380246480054087 0.02046981859247815
                  CHANNELS 3 Yrotation Xrotation Zrotation
                  JOINT rightMiddleIntermediate
                  {
                    OFFSET -0.3705733999999994 -2.9611069152224445e-9 9.35054791928458e-8
                    CHANNELS 3 Yrotation Xrotation Zrotation
                    JOINT rightMiddleDistal
                    {
                      OFFSET -0.22861063500000056 -1.82673876025774e-9 -1.6740782024515788e-7
                      CHANNELS 3 Yrotation Xrotation Zrotation
                      End Site
                      {
                        OFFSET -0.22861063500000056 -1.82673876025774e-9 -1.6740782024515788e-7
                      }
                    }
                  }
                }
                JOINT rightRingProximal
                {
                  OFFSET -0.6561845547265777 0.07380246406440083 -0.13588087571513918
                  CHANNELS 3 Yrotation Xrotation Zrotation
                  JOINT rightRingIntermediate
                  {
                    OFFSET -0.3437531000000005 -2.746796123886952e-9 1.4935781944558357e-7
                    CHANNELS 3 Yrotation Xrotation Zrotation
                    JOINT rightRingDistal
                    {
                      OFFSET -0.1983118991198174 -0.002467117924596085 -0.004538141969590015
                      CHANNELS 3 Yrotation Xrotation Zrotation
                      End Site
                      {
                        OFFSET -0.1983118991198174 -0.002467117924596085 -0.004538141969590015
                      }
                    }
                  }
                }
                JOINT rightThumbProximal
                {
                  OFFSET -0.09767004258864787 -0.14930060425447422 -0.07008212897521154
                  CHANNELS 3 Yrotation Xrotation Zrotation
                  JOINT rightThumbIntermediate
                  {
                    OFFSET -0.36682123028154767 -0.015768465060082004 0.28693641268151077
                    CHANNELS 3 Yrotation Xrotation Zrotation
                    JOINT rightThumbDistal
                    {
                      OFFSET -0.21091084272403915 -0.016756648201192714 0.1933767059105508
                      CHANNELS 3 Yrotation Xrotation Zrotation
                      End Site
                      {
                        OFFSET -0.21091084272403915 -0.016756648201192714 0.1933767059105508
                      }
                    }
                  }
                }
              }
            }
          }
        }
      }
    }
  }
  JOINT leftUpperLeg
  {
    OFFSET 0.7715603 -0.3993844658041501 0
    CHANNELS 3 Yrotation Xrotation Zrotation
    JOINT leftLowerLeg
    {
      OFFSET 0 -3.529830000249343 0
      CHANNELS 3 Yrotation Xrotation Zrotation
      JOINT leftFoot
      {
        OFFSET 0 -4.154939295409685 0.004208579085223096
        CHANNELS 3 Yrotation Xrotation Zrotation
        JOINT leftToes
        {
          OFFSET 0 -0.6353414391261847 1.10414981190622
          CHANNELS 3 Yrotation Xrotation Zrotation
          End Site
          {
            OFFSET 0 -0.6015820691747853 1.10414981190622
          }
        }
      }
    }
  }
  JOINT rightUpperLeg
  {
    OFFSET -0.7715603 -0.3993844658041501 0
    CHANNELS 3 Yrotation Xrotation Zrotation
    JOINT rightLowerLeg
    {
      OFFSET 0 -3.529830000249343 0
      CHANNELS 3 Yrotation Xrotation Zrotation
      JOINT rightFoot
      {
        OFFSET 0 -4.154939295409685 0.004208579085223096
        CHANNELS 3 Yrotation Xrotation Zrotation
        JOINT rightToes
        {
          OFFSET 0 -0.6353414391261847 1.10414981190622
          CHANNELS 3 Yrotation Xrotation Zrotation
          End Site
          {
            OFFSET 0 -0.6015820691747853 1.10414981190622
          }
        }
      }
    }
  }
}
MOTION
Frames: 4
Frame Time: 0.03333333333333333
-0.07465033368630844 7.867624109441582 1.3952889046673003 -3.868045258662014 -6.3564875314905045 -1.9059306189909198 5.675487965454018 20.254120163446352 3.8605100082974597 3.354934354595606 14.119618490909344 0.7444022292120758 0 0 0 -2.265086378589721 2.9203193497301454 3.3499150526879684 -10.508548374450497 -25.88812369330458 4.9952167952724915 0 0 0 0 0 0 0.2476625081330773 0.3237454056179703 -5.497733114321044 -12.354466045208046 1.6617872689057183 -48.823670238544054 -133.12948812104068 -0.000028798032220728446 0.00009759509140067655 23.031992660194216 30.71592867232502 -3.3621111110381547 6.878254345370394 7.782639703769666 -97.1207679999148 6.865621309564002 7.913326587218038 -98.1160601431857 5.224352450009319 2.3893184579642783 -49.076575779671124 6.354965305690865 12.045273705717857 -96.70116181364548 2.4704538761330124 8.156843626459702 -98.63349971129442 5.154350391639979 2.542703955611162 -49.07085257048052 6.87837305764743 7.782153699082318 -97.10488534344321 6.86511116544965 7.907115192457958 -98.13190295111721 5.233738752481041 2.3906478727247524 -49.07654804715408 6.877557510953041 7.788367535514863 -97.12086627445053 6.860790084458701 7.907116054426873 -98.1159467444703 5.231500784675698 2.390310124774327 -49.0765399555891 16.53027069806325 32.73788589447073 8.107627511789754 61.71869413021593 25.476450175563684 0.3210647152860328 27.735581912030934 8.796210174059244 -3.7871288224947715 -2.866056397496097 0.055479477518154574 2.237235746942117 62.28822288475591 -9.144232311569526 38.87523780465485 109.64958794508087 0.000016290715992257513 1.1264608681995515e-7 -19.83351851946458 38.49442108473901 -21.88410854788072 -6.840442767304579 8.477566650318131 102.082015505017 -6.827862011626097 8.448912753236877 102.08103345747945 -5.448692560717156 2.59791648394661 51.04679062053184 -6.857096353312805 8.400852593233825 102.07898236989607 -6.937115541953437 8.306080568459727 102.07653497417974 -5.53227248987531 2.5207678818929575 51.049575345006225 -6.8322839602841885 8.515383811959799 102.0832275027099 -6.795405079318022 8.420143606096541 102.08012256450358 -5.476461901026022 2.5958834820387047 51.04686369422007 -6.848188631585112 8.441696098078122 102.08077341080735 -6.860742870159498 8.466520370471821 102.08159579053687 -5.443761112033195 2.6141376704371195 51.0461952763044 3.8856737249139734 43.44281773596617 5.570589669180615 -38.009283163985415 56.19799914790334 -13.646214764973998 -13.422152261634631 25.742350966746226 1.4004945406596039 8.26497272795791 -22.105854341066156 21.273980886734417 -9.379147497640494 45.630937465031664 1.302206201252293 -1.2336245563027273 -19.646584626111675 -21.146061699246022 0.0000022889179782840754 -3.502057261521305 -0.000004295272378142589 -0.9976027953223847 -24.84709015867105 -2.6336251796231895 10.782170525797456 56.699249613215244 1.4185994375774162 -1.6142090387079397 -26.179239115619925 9.005186636841461 -0.0000011672260121074317 -0.000015743071904540883 -0.0000022411621316309207
0.01807415519248356 7.868100079623135 1.3915822814598613 -4.989952624902332 -5.62311137732167 -2.410361110088785 5.102667774405552 18.069779010094948 3.727616428408018 3.0407139295551073 14.010524334091802 -0.6075848208010923 0 0 0 -2.2550553854024527 2.5741225536062555 3.711038767579818 -10.378844010574197 -24.146560834752236 5.794357652295092 0 0 0 0 0 0 -1.0009396098581764 0.3535934538465039 -3.3521455170539136 -10.931077921654024 -7.025979876206671 -46.656461456432766 -129.32259986378662 -0.00005785166501121918 0.0001280605362830403 22.21707409096753 33.14145490996754 -5.877162005673382 6.878254345370394 7.782639703769666 -97.1207679999148 6.865621309564002 7.913326587218038 -98.1160601431857 5.224352450009319 2.3893184579642783 -49.076575779671124 6.354965305690865 12.045273705717857 -96.70116181364548 2.4704538761330124 8.156843626459702 -98.63349971129442 5.154350391639979 2.542703955611162 -49.07085257048052 6.87837305764743 7.782153699082318 -97.10488534344321 6.86511116544965 7.907115192457958 -98.13190295111721 5.233738752481041 2.3906478727247524 -49.07654804715408 6.877557510953041 7.788367535514863 -97.12086627445053 6.860790084458701 7.907116054426873 -98.1159467444703 5.231500784675698 2.390310124774327 -49.0765399555891 16.53027069806325 32.73788589447073 8.107627511789754 61.71869413021593 25.476450175563684 0.3210647152860328 27.735581912030934 8.796210174059244 -3.7871288224947715 -1.9575105794192174 0.05855325426500229 0.9386429051551144 64.4098368077769 -15.501959980025378 36.58313975087008 102.97107016875516 -7.175795976809562e-7 0.0000025759048760801 -17.37058552294518 38.61281450554409 -23.09241228808356 -6.840442767304579 8.477566650318131 102.082015505017 -6.827862011626097 8.448912753236877 102.08103345747945 -5.448692560717156 2.59791648394661 51.04679062053184 -6.857096353312805 8.400852593233825 102.07898236989607 -6.937115541953437 8.306080568459727 102.07653497417974 -5.53227248987531 2.5207678818929575 51.049575345006225 -6.8322839602841885 8.515383811959799 102.0832275027099 -6.795405079318022 8.420143606096541 102.08012256450358 -5.476461901026022 2.5958834820387047 51.0468658434427 -6.848188631585112 8.441696098078122 102.08077341080735 -6.860742870159498 8.466520370471821 102.08159579053687 -5.443761112033195 2.6141376704371195 51.0461952763044 3.8856737249139734 43.44281773596617 5.570589669180615 -38.009283163985415 56.19799914790334 -13.646214764973998 -13.422152261634631 25.742350966746226 1.4004945406596039 7.781763303728617 -22.92825405971839 21.19773160604497 -9.127557105901605 46.98212615578206 1.0104724848637414 0.6098309417865142 -20.16513049054958 -20.952689592904758 5.376849034294055e-7 -2.453866964215253 0.0000037313483081743944 -1.4295068658813976 -25.849125892807162 -3.0962308602187023 12.632901992802749 56.0255094179727 3.410505873478862 -1.1027060525746661 -25.539617278902245 8.801435337402324 2.498077873468813e-7 -0.000058932241823584877 -0.000007270432490801159
0.11626888405192982 7.892598238858309 1.3975636075630717 -6.106287929673018 -4.826697734142789 -2.879690338702053 4.59646341256332 15.710707771862708 3.512254169759238 2.7682969199975846 13.68330655051049 -1.7080598500364694 0 0 0 -2.225799357798262 2.4658944845463906 4.017846873462824 -10.169266767871838 -22.03350822504772 6.561640307297459 0 0 0 0 0 0 -2.3187639678528145 0.4604157340558657 -1.3101339920928612 -10.532172330838685 -15.47104247715439 -44.15504941243909 -124.34473813868802 -0.0000655489094167268 0.0001117273732696312 20.959419437123756 35.56407711153544 -8.5242171479401 6.878254345370394 7.782639703769666 -97.1207679999148 6.865621309564002 7.913326587218038 -98.1160601431857 5.224352450009319 2.3893184579642783 -49.076575779671124 6.354965305690865 12.045273705717857 -96.70116181364548 2.4704538761330124 8.156843626459702 -98.63349971129442 5.154350391639979 2.542703955611162 -49.07085257048052 6.87837305764743 7.782153699082318 -97.10488534344321 6.86511116544965 7.907115192457958 -98.13190295111721 5.233738752481041 2.3906478727247524 -49.07654804715408 6.877557510953041 7.788367535514863 -97.12086627445053 6.860790084458701 7.907116054426873 -98.1159467444703 5.231500784675698 2.390310124774327 -49.0765399555891 16.53027069806325 32.73788589447073 8.107627511789754 61.71869413021593 25.476450175563684 0.3210647152860328 27.735581912030934 8.796210174059244 -3.7871288224947715 -0.9008278906391334 0.09469515980588694 -0.37501525347439574 66.91425202008448 -21.849240677990394 33.85143549304189 94.93939648957733 -0.0000026455306276119577 -0.0000034197450139505456 -14.39108702617815 38.4439542501985 -24.274292389988453 -6.840442767304579 8.477566650318131 102.082015505017 -6.827862011626097 8.448912753236877 102.08103345747945 -5.448692560717156 2.59791648394661 51.04679062053184 -6.857096353312805 8.400852593233825 102.07898236989607 -6.937115541953437 8.306080568459727 102.07653497417974 -5.53227248987531 2.5207678818929575 51.049575345006225 -6.8322839602841885 8.515383811959799 102.0832275027099 -6.795405079318022 8.420143606096541 102.08012256450358 -5.476461901026022 2.5958834820387047 51.0468658434427 -6.848188631585112 8.441696098078122 102.08077341080735 -6.860742870159498 8.466520370471821 102.08159579053687 -5.443761112033195 2.6141376704371195 51.0461952763044 3.8856737249139734 43.44281773596617 5.570589669180615 -38.009283163985415 56.19799914790334 -13.646214764973998 -13.422152261634631 25.742350966746226 1.4004945406596039 7.500430472819867 -23.387099635875106 20.97565064899435 -8.607330686074157 47.53490546321506 0.8873878148036445 2.2675874608534152 -20.38215267865484 -20.67174221025714 -9.81829859891582e-7 -1.6569394301870077 -0.000004136388739120542 -2.0143449314254207 -26.48729871193302 -3.6248572038051448 14.005915511120216 54.55327570700872 4.9064245244136755 -0.3109715808447754 -24.561836294166017 8.612674734333732 -1.0507912739953548e-7 -0.000022178014918288146 7.337050099159763e-7
0.2178295634009621 7.942315014925869 1.4137850387317146 -7.218538203890294 -4.06934699329144 -3.410277045938096 4.197610488464843 13.406961286264343 3.197014737910506 2.5600207403545405 13.116355212403581 -2.4454140258243418 0 0 0 -2.1864239097881373 2.6339613096291026 4.241552553890106 -10.0308159656985 -19.643101702890828 7.421863567670376 0 0 0 0 0 0 -3.6615878514452738 0.624696408995765 0.5027612007338952 -11.421583646260435 -23.31434488049355 -41.12156385209082 -117.94807343804776 -0.00006196517317139826 0.00009350733219699024 19.087143076295305 37.70926213707904 -11.279173883336359 6.878254345370394 7.782639703769666 -97.1207679999148 6.865621309564002 7.913326587218038 -98.1160601431857 5.224352450009319 2.3893184579642783 -49.076575779671124 6.354965305690865 12.045273705717857 -96.70116181364548 2.4704538761330124 8.156843626459702 -98.63349971129442 5.154350391639979 2.542703955611162 -49.07085257048052 6.87837305764743 7.782153699082318 -97.10488534344321 6.86511116544965 7.907115192457958 -98.13190295111721 5.233738752481041 2.3906478727247524 -49.07654804715408 6.877557510953041 7.788367535514863 -97.12086627445053 6.860790084458701 7.907116054426873 -98.1159467444703 5.231500784675698 2.390310124774327 -49.0765399555891 16.53027069806325 32.73788589447073 8.107627511789754 61.71869413021593 25.476450175563684 0.3210647152860328 27.735581912030934 8.796210174059244 -3.7871288224947715 0.33203902722820855 0.17420352280445275 -1.6685641834352596 69.76356766874696 -28.0216376181891 30.80347302836145 85.50864375116566 0.000019168285640544214 0.000011054574010829011 -10.939641768595235 38.09764287709783 -25.495377681799056 -6.840442767304579 8.477566650318131 102.082015505017 -6.827862011626097 8.448912753236877 102.08103345747945 -5.448692560717156 2.59791648394661 51.04679062053184 -6.857096353312805 8.400852593233825 102.07898321382247 -6.937115541953437 8.306080568459727 102.07653497417974 -5.53227248987531 2.5207678818929575 51.049575345006225 -6.8322839602841885 8.515383811959799 102.0832275027099 -6.795405079318022 8.420143606096541 102.08012256450358 -5.476461901026022 2.5958834820387047 51.0468658434427 -6.848188631585112 8.441696098078122 102.08077341080735 -6.860742870159498 8.466520370471821 102.08159579053687 -5.443761112033195 2.6141376704371195 51.0461952763044 3.8856737249139734 43.44281773596617 5.570589669180615 -38.009283163985415 56.19799914790334 -13.646214764973998 -13.422152261634631 25.742350966746226 1.4004945406596039 7.484413069028709 -23.41223960355759 20.701309993741916 -7.765573485992922 47.25073275806421 1.0674900855181597 3.585739443983691 -20.301231242962437 -20.29961850320611 0.000003410346290903324 -1.1598547272044284 -0.0000050496362957828735 -2.7353517265726333 -26.57251564220137 -4.048693250394406 14.616626687015973 52.21604281190478 5.606983963183339 0.7969936652440467 -23.21699412252704 8.51600128631913 2.411862958047476e-7 -0.09386130196911095 -8.554234149487668e-7
